#!OML:ASF H:\LiuWeirdWalks\Patient Classification 1\Patient 1\Session 1\male.ASF
:FULLY-SPECIFIED
:DEGREES
839
root 0.0142791 18.3317 6.53135 2.68984 5.55025 3.23343
lowerback 8.99418 -0.785739 -0.0183947
upperback 2.54718 -0.941336 3.3043
thorax -2.3433 -0.468874 3.53765
lowerneck -20.8567 0.634255 2.29722
upperneck 30.9043 2.5073 -6.94743
head 14.2099 0.375533 -2.75965
rclavicle -1.74931e-014 2.8625e-014
rhumerus -22.3858 -30.7802 -5.99244
rradius 28.9223
rwrist -1.4436
rhand -22.7798 -7.18907
rfingers 7.12502
rthumb 3.65574 -37.1375
lclavicle -1.74931e-014 2.8625e-014
lhumerus -20.0066 30.066 15.2816
lradius 31.855
lwrist -2.39771
lhand -17.6284 3.854
lfingers 7.12502
lthumb 8.62894 33.6577
rfemur -14.4415 -1.93396 16.0606
rtibia 28.2769
rfoot -10.1577 -19.4222
rtoes -0.0443996
lfemur -5.20985 -0.682171 -13.5022
ltibia 45.2413
lfoot 4.84894 -1.90963
ltoes -13.2624
840
root 0.00371104 18.3326 6.5873 2.61958 5.61503 3.30066
lowerback 9.00935 -0.787698 0.0442093
upperback 2.57632 -0.935228 3.41831
thorax -2.32087 -0.466392 3.62061
lowerneck -20.8679 0.622006 2.29054
upperneck 30.9148 2.54473 -7.09619
head 14.2228 0.369966 -2.81331
rclavicle -1.39149e-014 0
rhumerus -22.3515 -30.8709 -6.15193
rradius 28.8613
rwrist -1.37128
rhand -22.7914 -7.24782
rfingers 7.12502
rthumb 3.64452 -37.1964
lclavicle -1.39149e-014 0
lhumerus -19.8917 30.0086 15.1898
lradius 31.8991
lwrist -2.31809
lhand -17.6978 3.85587
lfingers 7.12502
lthumb 8.56194 33.6623
rfemur -14.1439 -1.73491 16.0616
rtibia 28.2762
rfoot -10.2564 -19.7902
rtoes 0.0396535
lfemur -5.58852 -0.607836 -13.5127
ltibia 45.8108
lfoot 4.28768 -2.23589
ltoes -13.1759
841
root -0.00591444 18.3326 6.64319 2.54645 5.69454 3.37766
lowerback 9.02225 -0.790413 0.106016
upperback 2.60564 -0.930544 3.52274
thorax -2.29706 -0.464611 3.69415
lowerneck -20.8715 0.601317 2.26977
upperneck 30.9006 2.56703 -7.22628
head 14.2217 0.35918 -2.85858
rclavicle 4.37326e-015 -3.18055e-015
rhumerus -22.3613 -30.9436 -6.29022
rradius 28.8094
rwrist -1.2964
rhand -22.7923 -7.26256
rfingers 7.12502
rthumb 3.64371 -37.2112
lclavicle 4.37326e-015 -3.18055e-015
lhumerus -19.7651 29.9093 15.113
lradius 31.9617
lwrist -2.17711
lhand -17.7787 3.92067
lfingers 7.12502
lthumb 8.48389 33.7303
rfemur -13.8484 -1.56012 16.0497
rtibia 28.2982
rfoot -10.3698 -20.1478
rtoes 0.102908
lfemur -5.9587 -0.543089 -13.5451
ltibia 46.3102
lfoot 3.64971 -2.5379
ltoes -13.1937
842
root -0.0149616 18.3322 6.69904 2.4736 5.77533 3.45278
lowerback 9.03 -0.788421 0.167748
upperback 2.63249 -0.919765 3.62471
thorax -2.27339 -0.459763 3.76448
lowerneck -20.848 0.5774 2.24578
upperneck 30.8613 2.58339 -7.35378
head 14.2031 0.346566 -2.902
rclavicle 6.36111e-015 -7.95139e-015
rhumerus -22.4031 -30.9809 -6.41026
rradius 28.7667
rwrist -1.23955
rhand -22.7841 -7.27983
rfingers 7.12502
rthumb 3.65158 -37.2283
lclavicle 6.36111e-015 -7.95139e-015
lhumerus -19.6302 29.7981 15.047
lradius 32.025
lwrist -2.03314
lhand -17.8453 4.00977
lfingers 7.12502
lthumb 8.41963 33.8219
rfemur -13.561 -1.39855 16.0386
rtibia 28.3379
rfoot -10.4916 -20.487
rtoes 0.134922
lfemur -6.32697 -0.475689 -13.5854
ltibia 46.7426
lfoot 2.988 -2.79831
ltoes -13.2178
843
root -0.023214 18.3314 6.75435 2.40418 5.87349 3.53241
lowerback 9.04724 -0.788538 0.227235
upperback 2.65248 -0.91167 3.72242
thorax -2.26196 -0.456062 3.83228
lowerneck -20.8336 0.541393 2.19891
upperneck 30.8403 2.58457 -7.461
head 14.1929 0.327249 -2.93658
rclavicle 1.19271e-015 3.18055e-015
rhumerus -22.4664 -30.9939 -6.5162
rradius 28.7348
rwrist -1.20618
rhand -22.7602 -7.32941
rfingers 7.12502
rthumb 3.67472 -37.2775
lclavicle 1.19271e-015 3.18055e-015
lhumerus -19.494 29.6977 14.9857
lradius 32.0879
lwrist -1.91383
lhand -17.8958 4.10638
lfingers 7.12502
lthumb 8.37091 33.9205
rfemur -13.2801 -1.27758 16.0187
rtibia 28.3896
rfoot -10.6225 -20.7942
rtoes 0.136338
lfemur -6.70382 -0.41913 -13.642
ltibia 47.114
lfoot 2.3412 -2.99338
ltoes -13.2471
844
root -0.0307755 18.3302 6.80915 2.33389 5.97092 3.5985
lowerback 9.07195 -0.78919 0.296159
upperback 2.67915 -0.903455 3.81963
thorax -2.2479 -0.452374 3.89431
lowerneck -20.8626 0.515999 2.17591
upperneck 30.8422 2.5993 -7.58383
head 14.204 0.313444 -2.98077
rclavicle -1.19271e-015 2.38542e-014
rhumerus -22.5295 -31.0235 -6.62174
rradius 28.6943
rwrist -1.14573
rhand -22.7177 -7.34303
rfingers 7.12502
rthumb 3.71573 -37.2904
lclavicle -1.19271e-015 2.38542e-014
lhumerus -19.3453 29.6831 14.9173
lradius 32.1137
lwrist -1.89257
lhand -17.9275 4.1366
lfingers 7.12502
lthumb 8.34029 33.9519
rfemur -13.0045 -1.18268 16.0097
rtibia 28.4458
rfoot -10.7477 -21.0618
rtoes 0.0938097
lfemur -7.08438 -0.353728 -13.6933
ltibia 47.4291
lfoot 1.70573 -3.11284
ltoes -13.3168
845
root -0.0377934 18.3289 6.86289 2.26759 6.06579 3.64687
lowerback 9.1091 -0.789402 0.379928
upperback 2.70036 -0.892735 3.91771
thorax -2.24677 -0.447276 3.94899
lowerneck -20.9216 0.489632 2.15366
upperneck 30.8661 2.61329 -7.70507
head 14.2314 0.298849 -3.02591
rclavicle 1.03368e-014 -4.29375e-014
rhumerus -22.5909 -31.0707 -6.72139
rradius 28.6451
rwrist -1.07144
rhand -22.6738 -7.35384
rfingers 7.12502
rthumb 3.75812 -37.3005
lclavicle 1.03368e-014 -4.29375e-014
lhumerus -19.2112 29.6582 14.8455
lradius 32.1398
lwrist -1.89408
lhand -17.9602 4.13738
lfingers 7.12502
lthumb 8.30873 33.954
rfemur -12.7402 -1.10385 16.017
rtibia 28.5017
rfoot -10.8669 -21.2942
rtoes 0.0224247
lfemur -7.48109 -0.273799 -13.7317
ltibia 47.694
lfoot 1.08991 -3.15094
ltoes -13.3852
846
root -0.0445837 18.3276 6.91617 2.20107 6.15006 3.6752
lowerback 9.14319 -0.784875 0.475454
upperback 2.71987 -0.874545 4.01841
thorax -2.24635 -0.438442 3.99894
lowerneck -20.987 0.45015 2.09176
upperneck 30.9152 2.61271 -7.79143
head 14.2692 0.277708 -3.05358
rclavicle -8.74653e-015 -9.54166e-015
rhumerus -22.6665 -31.1554 -6.79862
rradius 28.5821
rwrist -0.931927
rhand -22.6121 -7.34306
rfingers 7.12502
rthumb 3.81767 -37.2886
lclavicle -8.74653e-015 -9.54166e-015
lhumerus -19.0769 29.6331 14.7816
lradius 32.1699
lwrist -1.90787
lhand -17.9898 4.10544
lfingers 7.12502
lthumb 8.28018 33.9232
rfemur -12.4804 -1.03338 16.0441
rtibia 28.5529
rfoot -10.9803 -21.4937
rtoes -0.0745941
lfemur -7.88565 -0.182863 -13.7555
ltibia 47.9083
lfoot 0.495809 -3.08829
ltoes -13.4249
847
root -0.050896 18.3265 6.96868 2.13768 6.22612 3.68529
lowerback 9.18398 -0.78194 0.580856
upperback 2.72936 -0.856908 4.11972
thorax -2.26011 -0.42969 4.04434
lowerneck -21.0072 0.421397 2.06771
upperneck 30.9214 2.6199 -7.90431
head 14.2796 0.261963 -3.09515
rclavicle 2.50469e-014 1.11319e-014
rhumerus -22.7312 -31.2487 -6.8806
rradius 28.5073
rwrist -0.79391
rhand -22.5626 -7.33709
rfingers 7.12502
rthumb 3.86553 -37.2818
lclavicle 2.50469e-014 1.11319e-014
lhumerus -18.9641 29.5987 14.7038
lradius 32.1937
lwrist -1.92641
lhand -18.0445 4.01713
lfingers 7.12502
lthumb 8.22741 33.8369
rfemur -12.228 -0.974619 16.0882
rtibia 28.5967
rfoot -11.0977 -21.6613
rtoes -0.172835
lfemur -8.30194 -0.0799868 -13.7666
ltibia 48.0717
lfoot -0.074286 -2.92948
ltoes -13.4355
